<svg width="2769" height="1447" viewBox="0 0 2769 1447" fill="none" xmlns="http://www.w3.org/2000/svg">
<path d="M1696.01 831.867C1701 831.877 1706 831.888 1711.14 831.898C1726.87 831.937 1742.59 832.027 1758.31 832.118C1769.07 832.154 1779.82 832.187 1790.57 832.216C1816.74 832.294 1842.91 832.417 1869.07 832.565C1885.62 885.302 1899.51 933.901 1889.84 989.746C1874.47 1016.54 1851.09 1024.48 1823.21 1034.4C1785.92 1042.34 1747.78 1044.29 1709.86 1046.9C1711.85 1050.81 1713.84 1054.72 1715.89 1058.75C1740.76 1108.7 1761.97 1159.95 1782.57 1211.87C1788.25 1226.18 1793.97 1240.46 1799.7 1254.75C1827.54 1324.47 1827.54 1324.47 1827.54 1332.69C1806.98 1332.69 1786.42 1332.69 1765.24 1332.69C1762.95 1325.61 1760.67 1318.54 1758.31 1311.25C1741.44 1313.18 1741.44 1313.18 1723.7 1318.4C1719.13 1325.47 1714.56 1332.54 1709.86 1339.83C1707.57 1339.83 1705.29 1339.83 1702.93 1339.83C1700.65 1344.55 1698.37 1349.26 1696.01 1354.12C1672.75 1338.45 1662.46 1324.6 1650.91 1298.67C1647.84 1291.9 1644.78 1285.14 1641.62 1278.17C1636.85 1267.36 1636.85 1267.36 1631.98 1256.33C1625.23 1241.38 1618.47 1226.44 1611.7 1211.51C1606.74 1200.49 1606.74 1200.49 1601.67 1189.24C1588.85 1161.06 1575.47 1133.2 1561.89 1105.4C1559.67 1100.82 1557.45 1096.24 1555.16 1091.52C1545.62 1071.89 1535.93 1052.36 1525.95 1032.95C1503.71 989.271 1488.39 955.839 1503.05 906.244C1522.78 870.27 1547.13 851.605 1585.25 839.71C1622.38 834.02 1658.46 831.573 1696.01 831.867Z" fill="#49279D"/>
<path d="M1730.63 418.18C1732.91 425.253 1735.2 432.326 1737.55 439.614C1732.27 443.445 1726.98 447.276 1721.54 451.224C1693.89 476.444 1683.29 498.11 1680.01 536.066C1682.15 560.897 1688.02 580.548 1696.01 603.939C1724.58 604.156 1753.13 604.041 1781.7 603.634C1791.39 603.541 1801.09 603.534 1810.78 603.62C1878.63 605.011 1878.63 605.011 1936.79 572.71C1944.44 564.277 1951.89 555.644 1959.07 546.783C1962.86 543.034 1966.65 539.285 1970.55 535.422C1981.87 523.144 1984.01 513.255 1986.76 496.771C2008.46 494.468 2018.28 494.412 2036.14 508.018C2082.63 558.924 2082.63 558.924 2097.52 589.65C2056.57 634.092 2012.46 672.966 1965.99 711.108C1960.09 716.303 1954.19 721.497 1948.12 726.849C1931.38 739.687 1931.38 739.687 1903.69 746.831C1903.69 775.124 1903.69 803.416 1903.69 832.566C1803.17 832.566 1702.66 832.566 1599.1 832.566C1599.1 791.285 1599.49 757.845 1606.02 718.253C1601.1 718.336 1596.19 718.419 1591.12 718.504C1584.76 718.568 1578.4 718.633 1571.84 718.699C1565.5 718.782 1559.15 718.865 1552.62 718.95C1536.8 718.253 1536.8 718.253 1529.87 711.108C1526.68 680.378 1526.95 654.048 1538.53 625.373C1552.86 608.471 1557.25 607.457 1578.33 603.939C1595.05 603.451 1611.79 603.333 1628.52 603.493C1641.64 603.59 1641.64 603.59 1655.02 603.688C1661.69 603.771 1668.37 603.854 1675.25 603.939C1673.02 600.007 1670.78 596.074 1668.49 592.022C1654.11 558.205 1655.25 516.482 1666.16 481.533C1681.86 450.338 1701.95 434.997 1730.63 418.18Z" fill="#7845D2"/>
<path d="M1585.25 811.132C1589.82 811.132 1594.39 811.132 1599.1 811.132C1599.1 818.205 1599.1 825.278 1599.1 832.566C1612.81 832.566 1626.51 832.566 1640.63 832.566C1640.63 834.924 1640.63 837.281 1640.63 839.71C1635.62 840.41 1630.6 841.11 1625.44 841.831C1585.56 848.196 1553.51 853.404 1522.95 882.578C1504.84 912.374 1500.2 932.242 1506.94 966.08C1511.12 982.586 1515.18 995.483 1523.95 1009.98C1535.39 1039.91 1525.14 1069.74 1514.12 1098.64C1510.48 1106.37 1506.83 1114.1 1503.08 1122.06C1499.1 1130.54 1495.13 1139.02 1491.03 1147.75C1488.95 1152.09 1486.88 1156.42 1484.74 1160.89C1478.36 1174.22 1472.09 1187.61 1465.83 1201C1434.96 1266.32 1434.96 1266.32 1419.11 1282.67C1418.11 1301.11 1417.82 1318.75 1418.25 1337.15C1418.31 1342.2 1418.37 1347.25 1418.44 1352.45C1418.6 1364.91 1418.85 1377.38 1419.11 1389.84C1409.98 1389.84 1400.84 1389.84 1391.42 1389.84C1391.42 1370.98 1391.42 1352.12 1391.42 1332.69C1384.86 1331.07 1378.29 1329.44 1371.52 1327.77C1364.38 1324.68 1357.24 1321.59 1349.89 1318.4C1347.6 1312.36 1345.32 1306.31 1342.97 1300.09C1340.68 1294.34 1338.4 1288.6 1336.04 1282.67C1314.91 1276.26 1314.91 1276.26 1294.51 1275.53C1291.08 1282.6 1291.08 1282.6 1287.59 1289.82C1270.71 1284.01 1270.71 1284.01 1252.97 1275.53C1250.69 1268.46 1248.4 1261.38 1246.05 1254.1C1252.9 1254.1 1259.76 1254.1 1266.82 1254.1C1269.25 1248.63 1271.69 1243.17 1274.2 1237.55C1437.71 871.386 1437.71 871.386 1495.26 839.71C1517.04 835.114 1538.63 831.66 1560.7 828.938C1566.52 827.777 1572.34 826.617 1578.33 825.421C1580.62 820.706 1582.9 815.99 1585.25 811.132Z" fill="#3A1C84"/>
<path d="M152.297 1075.48C209.407 1075.48 266.518 1075.48 325.359 1075.48C319.735 1121.92 319.735 1121.92 317.767 1138.1C313.861 1170.25 310.017 1202.4 306.214 1234.56C304.846 1246.05 304.846 1246.05 303.451 1257.77C301.633 1273.03 299.829 1288.3 298.039 1303.56C297.194 1310.63 296.349 1317.7 295.479 1324.98C294.733 1331.29 293.987 1337.6 293.219 1344.09C290.747 1361.26 290.747 1361.26 283.824 1389.84C228.998 1389.84 174.172 1389.84 117.684 1389.84C121.127 1322.33 127.201 1255.59 134.99 1188.46C135.894 1180.6 136.798 1172.75 137.73 1164.66C141.337 1134.24 145.081 1105.27 152.297 1075.48Z" fill="#FEBF00"/>
<path d="M286.312 0.217443C292.801 0.215947 299.289 0.214452 305.973 0.212912C313.428 0.142651 320.882 0.0723899 328.562 0C336.74 0.0690736 344.918 0.138147 353.344 0.209314C366.262 0.151411 366.262 0.151411 379.442 0.0923381C403.071 0.0182059 426.695 0.072536 450.324 0.190299C475.038 0.289171 499.751 0.24311 524.465 0.217926C565.969 0.198614 607.473 0.294957 648.977 0.460491C696.978 0.650612 744.978 0.663092 792.979 0.579174C839.134 0.502191 885.287 0.54636 931.442 0.647443C951.094 0.688611 970.745 0.68799 990.397 0.65412C1017.83 0.613729 1045.26 0.750842 1072.69 0.907027C1080.87 0.874865 1089.05 0.842703 1097.47 0.809566C1104.93 0.88033 1112.38 0.951095 1120.06 1.024C1126.55 1.04136 1133.04 1.05872 1139.72 1.07661C1159.12 4.30415 1165.35 8.98922 1176.82 25.2276C1179.18 44.0571 1179.18 44.0571 1178.85 66.3927C1178.79 74.3822 1178.72 82.3717 1178.65 90.6033C1178.48 98.9428 1178.3 107.282 1178.12 115.875C1178.03 124.297 1177.93 132.719 1177.84 141.397C1177.59 162.215 1177.25 183.027 1176.82 203.842C1174.54 203.842 1172.26 203.842 1169.9 203.842C1169.9 154.33 1169.9 104.818 1169.9 53.8059C868.358 53.8059 566.814 53.8059 256.132 53.8059C256.132 72.6676 256.132 91.5293 256.132 110.963C253.847 110.963 251.563 110.963 249.209 110.963C248.646 98.4651 248.244 85.9598 247.911 73.4535C247.67 66.4909 247.429 59.5283 247.181 52.3547C250.046 24.13 258.119 6.38992 286.312 0.217443Z" fill="#B4B0FC"/>
<path d="M1169.9 325.301C1172.19 325.301 1174.47 325.301 1176.83 325.301C1176.83 348.878 1176.83 372.455 1176.83 396.747C1182.24 396.664 1187.66 396.581 1193.24 396.495C1200.24 396.431 1207.25 396.367 1214.47 396.3C1221.45 396.217 1228.44 396.134 1235.64 396.049C1252.97 396.747 1252.97 396.747 1259.9 403.891C1260.5 417.135 1260.64 430.402 1260.57 443.661C1260.55 450.896 1260.54 458.131 1260.52 465.585C1260.46 474.845 1260.39 484.105 1260.33 493.645C1260.19 522.969 1260.04 552.293 1259.9 582.506C1198.22 582.506 1136.54 582.506 1072.99 582.506C1061.86 559.539 1065.67 536.522 1066.07 511.06C1061.5 508.702 1056.93 506.345 1052.22 503.915C1056.79 503.915 1061.36 503.915 1066.07 503.915C1065.9 497.376 1065.74 490.837 1065.58 484.1C1065.45 475.609 1065.33 467.117 1065.2 458.369C1065.04 449.914 1064.88 441.459 1064.71 432.749C1066.07 411.036 1066.07 411.036 1079.91 396.747C1100.95 395.351 1100.95 395.351 1125.77 395.854C1138.11 396.047 1138.11 396.047 1150.7 396.244C1157.04 396.41 1163.38 396.576 1169.9 396.747C1169.9 373.169 1169.9 349.592 1169.9 325.301ZM1135.29 461.048C1135.29 468.121 1135.29 475.194 1135.29 482.482C1130.72 482.482 1126.15 482.482 1121.45 482.482C1126.01 496.628 1130.58 510.774 1135.29 525.349C1158.68 531.383 1174.57 533.269 1197.59 525.349C1199.88 511.203 1202.16 497.057 1204.52 482.482C1199.95 482.482 1195.38 482.482 1190.67 482.482C1190.67 475.409 1190.67 468.335 1190.67 461.048C1167.92 455.336 1158.06 453.213 1135.29 461.048Z" fill="#847BFC"/>
<path d="M979.561 81.686C990.041 81.8104 990.041 81.8104 1000.73 81.9372C1007.74 82.0017 1014.74 82.0661 1021.96 82.1326C1027.38 82.2155 1032.79 82.2983 1038.37 82.3837C1032.44 143.623 1032.44 143.623 1017.61 168.119C1012.82 165.033 1008.04 161.948 1003.11 158.769C996.474 157.139 989.835 155.509 982.995 153.83C966.142 165.002 952.734 175.468 937.999 189.106C898.622 225.267 898.622 225.267 873.749 225.303C858.39 218.131 858.39 218.131 844.545 196.697C821.581 201.116 807.058 209.576 788.354 223.852C780.336 229.91 780.336 229.91 772.156 236.09C763.871 242.452 763.871 242.452 755.418 248.942C654.836 325.401 654.836 325.401 632.543 324.853C615.151 317.768 602.607 309.201 588.412 296.721C559.692 308.957 538.44 329.507 515.294 350.306C455.258 403.89 455.258 403.89 422.272 403.89C424.433 381.238 426.851 370.615 442.58 354.185C448.3 349.81 454.02 345.436 459.914 340.928C491.61 316.37 521.72 290.574 551.556 263.65C567.645 253.854 567.645 253.854 586.087 255.165C602.257 260.998 602.257 260.998 616.535 272.608C628.94 283.991 628.94 283.991 642.52 281.049C661.758 273.717 675.214 263.072 691.412 250.086C697.788 245.016 704.163 239.946 710.732 234.722C717.34 229.395 723.948 224.067 730.756 218.577C743.886 208.089 757.019 197.604 770.155 187.124C775.96 182.456 781.766 177.787 787.747 172.977C821.465 146.461 821.465 146.461 837.622 148.025C853.161 154.54 861.311 162.298 872.235 175.263C903.213 164.606 932.019 149.148 955.305 125.251C958.783 106.172 958.783 106.172 955.305 89.5283C962.227 82.3837 962.227 82.3837 979.561 81.686Z" fill="#5034B5"/>
<path d="M360.722 1071.33C378.499 1086.67 378.775 1101.52 381.176 1124.54C381.638 1130.27 382.101 1136 382.578 1141.9C383.153 1147.81 383.729 1153.71 384.322 1159.8C386.133 1178.72 387.762 1197.65 389.392 1216.59C390.589 1229.24 391.796 1241.89 393.016 1254.54C395.211 1277.88 397.388 1301.21 399.404 1324.56C399.813 1329.24 400.221 1333.93 400.642 1338.75C401.733 1358.14 401.507 1377.57 401.507 1396.99C307.845 1396.99 214.184 1396.99 117.684 1396.99C117.684 1394.63 117.684 1392.27 117.684 1389.84C172.51 1389.84 227.336 1389.84 283.824 1389.84C284.6 1375.68 285.377 1361.51 286.177 1346.92C290.16 1289.36 298.84 1233.19 308.485 1176.4C310.126 1166.53 311.762 1156.66 313.393 1146.79C317.34 1123.01 321.329 1099.24 325.359 1075.48C346.127 1068.34 346.127 1068.34 360.722 1071.33Z" fill="#F19802"/>
<path d="M1315.28 1361.27C1339.41 1369.19 1362.17 1377.44 1384.5 1389.84C1384.5 1394.56 1384.5 1399.27 1384.5 1404.13C1360.27 1412.47 1338.6 1412.25 1313.4 1412.14C1305.66 1412.15 1305.66 1412.15 1297.76 1412.16C1280.41 1412.17 1263.07 1412.13 1245.72 1412.09C1233.31 1412.09 1220.89 1412.09 1208.47 1412.09C1174.72 1412.09 1140.97 1412.05 1107.22 1412C1071.96 1411.96 1036.71 1411.95 1001.45 1411.94C934.667 1411.92 867.885 1411.86 801.102 1411.79C725.081 1411.71 649.06 1411.67 573.039 1411.64C416.639 1411.56 260.238 1411.44 103.838 1411.28C103.838 1404.2 103.838 1397.13 103.838 1389.84C505.897 1389.84 907.955 1389.84 1322.2 1389.84C1319.91 1380.41 1317.63 1370.98 1315.28 1361.27Z" fill="#242795"/>
<path d="M470.732 1268.39C473.016 1268.39 475.301 1268.39 477.654 1268.39C477.654 1308.47 477.654 1348.55 477.654 1389.84C489.077 1389.84 500.499 1389.84 512.267 1389.84C512.267 1352.12 512.267 1314.4 512.267 1275.53C548.818 1275.53 585.369 1275.53 623.027 1275.53C623.027 1315.61 623.027 1355.69 623.027 1396.99C572.77 1396.99 522.512 1396.99 470.732 1396.99C470.732 1354.55 470.732 1312.11 470.732 1268.39Z" fill="#B793E8"/>
<path d="M899.926 782.554C1066.69 782.554 1233.45 782.554 1405.27 782.554C1402.98 791.985 1400.7 801.416 1398.35 811.133C1233.87 811.133 1069.39 811.133 899.926 811.133C899.926 801.702 899.926 792.271 899.926 782.554Z" fill="#6631CC"/>
<path d="M962.228 803.987C969.081 803.987 975.934 803.987 982.995 803.987C979.108 873.495 970.084 941.553 958.983 1010.15C957.299 1020.71 955.619 1031.28 953.941 1041.84C950.45 1063.77 946.934 1085.69 943.397 1107.61C938.862 1135.71 934.383 1163.83 929.92 1191.95C926.47 1213.67 922.997 1235.39 919.516 1257.1C917.854 1267.48 916.198 1277.85 914.548 1288.23C912.252 1302.65 909.922 1317.06 907.591 1331.46C906.275 1339.66 904.958 1347.85 903.602 1356.29C899.925 1375.55 899.925 1375.55 893.003 1389.84C886.15 1389.84 879.296 1389.84 872.235 1389.84C876.585 1323.35 887.072 1258.2 898.005 1192.61C899.861 1181.35 901.713 1170.09 903.563 1158.83C908.397 1129.45 913.265 1100.08 918.141 1070.71C923.128 1040.63 928.081 1010.55 933.037 980.467C942.735 921.635 952.47 862.809 962.228 803.987Z" fill="#B58DF4"/>
<path d="M623.026 1289.82C667.697 1289.17 710.252 1291.06 754.553 1296.96C754.553 1329.97 754.553 1362.98 754.553 1396.99C711.149 1396.99 667.745 1396.99 623.026 1396.99C623.026 1361.62 623.026 1326.26 623.026 1289.82Z" fill="#F6C43F"/>
<path d="M1419.11 1275.53C1440.52 1308.67 1441.08 1343.5 1446.8 1382.7C1481.07 1385.06 1515.33 1387.41 1550.64 1389.84C1552.92 1378.06 1555.21 1366.27 1557.56 1354.12C1566.59 1338.63 1566.59 1338.63 1577.46 1324.2C1581.02 1319.39 1584.57 1314.57 1588.23 1309.61C1599.1 1296.96 1599.1 1296.96 1619.86 1282.68C1638.47 1281.78 1638.47 1281.78 1654.48 1282.68C1640.63 1296.96 1640.63 1296.96 1619.43 1306.34C1597.98 1316.16 1597.98 1316.16 1592.61 1335.37C1592.16 1354.74 1594.43 1371.11 1599.1 1389.84C1602.61 1388.68 1606.12 1387.52 1609.74 1386.32C1632.7 1381.45 1654.52 1381.91 1677.95 1382C1685.26 1382.02 1685.26 1382.02 1692.73 1382.03C1708.25 1382.07 1723.76 1382.16 1739.28 1382.25C1749.82 1382.29 1760.37 1382.32 1770.92 1382.35C1796.71 1382.43 1822.51 1382.55 1848.31 1382.7C1848.31 1385.06 1848.31 1387.41 1848.31 1389.84C1811.76 1392.2 1775.21 1394.56 1737.55 1396.99C1737.55 1399.35 1737.55 1401.7 1737.55 1404.13C1655.66 1411.27 1574.36 1412.14 1492.23 1411.72C1479.7 1411.69 1467.16 1411.66 1454.63 1411.63C1424.33 1411.55 1394.03 1411.43 1363.73 1411.28C1370.58 1408.92 1377.44 1406.56 1384.5 1404.13C1384.5 1399.42 1384.5 1394.7 1384.5 1389.84C1395.92 1389.84 1407.34 1389.84 1419.11 1389.84C1417.97 1385.42 1416.83 1381 1415.65 1376.45C1410.82 1345.31 1410.27 1314.15 1412.19 1282.68C1414.47 1280.32 1416.76 1277.96 1419.11 1275.53Z" fill="#4B39AC"/>
<path d="M1204.51 203.842C1228.28 217.703 1237.06 226.292 1246.05 252.961C1246.05 280.634 1239.98 295.145 1225.28 318.155C1207.1 333.569 1197.23 332.438 1173.36 331.998C1149.13 325.3 1149.13 325.3 1132.26 310.118C1118.43 283.856 1116.85 269.061 1121.44 239.565C1145.12 204.758 1163.98 197.118 1204.51 203.842Z" fill="#FD538F"/>
<path d="M996.84 582.505C1001.41 582.505 1005.98 582.505 1010.68 582.505C1010.68 613.155 1010.68 643.805 1010.68 675.384C1017.54 675.384 1024.39 675.384 1031.45 675.384C1031.45 710.75 1031.45 746.116 1031.45 782.553C1004.04 782.553 976.626 782.553 948.382 782.553C948.382 747.188 948.382 711.822 948.382 675.384C959.804 675.384 971.227 675.384 982.995 675.384C978.426 649.45 973.857 623.515 969.15 596.794C976.003 596.794 982.856 596.794 989.917 596.794C992.202 592.079 994.486 587.363 996.84 582.505Z" fill="#61AE9F"/>
<path d="M1252.97 1268.38C1264.56 1273.01 1276.11 1277.74 1287.58 1282.67C1289.87 1280.32 1292.15 1277.96 1294.51 1275.53C1314.84 1274.19 1314.84 1274.19 1336.04 1275.53C1349.89 1289.82 1349.89 1289.82 1349.89 1318.4C1363.59 1323.11 1377.3 1327.83 1391.42 1332.69C1391.42 1351.55 1391.42 1370.41 1391.42 1389.84C1364 1385.51 1343.05 1376.64 1318.6 1363.25C1311.53 1359.4 1304.46 1355.56 1297.17 1351.59C1289.87 1347.56 1282.56 1343.54 1275.04 1339.38C1267.6 1335.33 1260.16 1331.27 1252.5 1327.09C1234.18 1317.09 1215.87 1307.04 1197.59 1296.96C1211.55 1265.06 1220 1257.69 1252.97 1268.38Z" fill="#E931FA"/>
<path d="M809.934 268.144C830.494 268.144 851.053 268.144 872.236 268.144C872.236 327.086 872.236 386.029 872.236 446.758C851.677 446.758 831.117 446.758 809.934 446.758C809.934 387.815 809.934 328.873 809.934 268.144Z" fill="#B5B0FD"/>
<path d="M1730.62 1304.11C1749.23 1306.34 1749.23 1306.34 1765.24 1311.25C1765.24 1318.33 1765.24 1325.4 1765.24 1332.69C1785.8 1332.69 1806.36 1332.69 1827.54 1332.69C1832.11 1349.19 1836.68 1365.69 1841.38 1382.7C1770.57 1382.7 1699.75 1382.7 1626.79 1382.7C1640.63 1339.83 1640.63 1339.83 1647.55 1332.69C1659.09 1332.39 1670.63 1332.39 1682.17 1332.69C1691.64 1333.06 1691.64 1333.06 1709.86 1325.54C1713 1321.71 1716.14 1317.88 1719.38 1313.93C1723.09 1310.69 1726.8 1307.45 1730.62 1304.11Z" fill="#EC31FC"/>
<path d="M1986.76 389.601C1995.9 389.601 2005.03 389.601 2014.45 389.601C2042.14 426.117 2042.14 426.117 2042.14 446.757C2046.71 446.757 2051.28 446.757 2055.98 446.757C2055.98 451.473 2055.98 456.188 2055.98 461.046C2060.55 461.046 2065.12 461.046 2069.83 461.046C2069.83 465.762 2069.83 470.477 2069.83 475.336C2086.96 482.409 2086.96 482.409 2104.44 489.625C2104.44 517.917 2104.44 546.21 2104.44 575.36C2097.59 575.36 2090.73 575.36 2083.67 575.36C2067.22 557.834 2052.62 539.121 2037.65 520.24C2020.86 500.448 2020.86 500.448 1986.76 496.769C1986.76 461.404 1986.76 426.038 1986.76 389.601Z" fill="#714FD1"/>
<path d="M1495.26 546.782C1515.39 562.638 1529.55 574.858 1543.72 596.794C1561.46 602.007 1561.46 602.007 1578.33 603.939C1574.05 605.707 1569.76 607.475 1565.35 609.297C1547.46 620.156 1544.25 627.033 1536.8 646.806C1535.13 665.322 1535.13 665.322 1535.93 684.315C1536.12 693.875 1536.12 693.875 1536.31 703.628C1536.47 708.454 1536.63 713.28 1536.8 718.252C1525.37 718.252 1513.95 718.252 1502.18 718.252C1501.9 711.032 1501.61 703.811 1501.32 696.372C1496.32 661.923 1479.31 640.179 1453.73 618.228C1433.57 606.707 1413.1 597.656 1391.42 589.65C1393.71 582.577 1395.99 575.503 1398.35 568.216C1405.36 568.589 1405.36 568.589 1412.51 568.97C1421.78 569.26 1421.78 569.26 1431.23 569.556C1437.33 569.804 1443.43 570.053 1449.72 570.309C1470.66 567.853 1479.73 561.055 1495.26 546.782Z" fill="#7C41D5"/>
<path d="M387.662 1261.24C415.075 1263.6 442.488 1265.96 470.732 1268.39C470.732 1310.82 470.732 1353.26 470.732 1396.99C447.887 1396.99 425.043 1396.99 401.507 1396.99C399.169 1381.07 396.868 1365.14 394.584 1349.21C393.299 1340.34 392.014 1331.47 390.69 1322.33C387.662 1296.96 387.662 1296.96 387.662 1261.24Z" fill="#B58CEF"/>
<path d="M2069.83 246.71C2069.83 251.426 2069.83 256.141 2069.83 261C2074.4 261 2078.97 261 2083.67 261C2090.55 282.282 2091.52 296.837 2091.46 319.049C2091.48 325.404 2091.5 331.759 2091.51 338.306C2090.59 353.879 2090.59 353.879 2083.67 361.024C2070.85 361.54 2058 361.623 2045.17 361.47C2038.16 361.406 2031.16 361.341 2023.94 361.275C2018.52 361.192 2013.11 361.109 2007.52 361.024C1986.76 320.836 1986.76 320.836 1986.76 296.723C1993.61 296.723 2000.46 296.723 2007.52 296.723C2007.95 291.123 2008.38 285.523 2008.82 279.754C2014.45 261 2014.45 261 2030.89 251.622C2049.06 246.71 2049.06 246.71 2069.83 246.71Z" fill="#CDD3F0"/>
<path d="M754.552 1304.11C824.182 1303.41 824.182 1303.41 844.544 1304.11C851.467 1311.25 851.467 1311.25 852.143 1330.71C851.805 1363.85 851.805 1363.85 851.467 1396.99C819.485 1396.99 787.503 1396.99 754.552 1396.99C754.552 1366.34 754.552 1335.69 754.552 1304.11Z" fill="#FBB603"/>
<path d="M775.322 1182.65C786.744 1182.65 798.166 1182.65 809.934 1182.65C813.828 1196.49 813.828 1196.49 816.857 1211.23C814.572 1213.59 812.288 1215.94 809.934 1218.37C825.925 1220.73 841.916 1223.09 858.392 1225.52C858.392 1244.38 858.392 1263.24 858.392 1282.68C810.419 1280.32 762.446 1277.96 713.019 1275.53C713.019 1261.38 713.019 1247.24 713.019 1232.66C690.175 1232.66 667.331 1232.66 643.794 1232.66C643.794 1230.31 643.794 1227.95 643.794 1225.52C647.634 1225.34 651.473 1225.16 655.429 1224.98C672.896 1224.14 690.362 1223.27 707.827 1222.39C713.869 1222.11 719.91 1221.83 726.134 1221.54C731.979 1221.24 737.824 1220.94 743.846 1220.63C749.211 1220.37 754.577 1220.11 760.104 1219.84C775.027 1218.4 788.599 1215.39 803.012 1211.23C803.012 1206.51 803.012 1201.8 803.012 1196.94C793.874 1199.3 784.736 1201.66 775.322 1204.08C775.322 1197.01 775.322 1189.94 775.322 1182.65Z" fill="#DD8F3E"/>
<path d="M1979.83 689.675C1982.12 689.675 1984.4 689.675 1986.76 689.675C1987.13 710.813 1987.4 731.943 1987.62 753.083C1987.74 759.097 1987.85 765.111 1987.97 771.307C1988.02 777.063 1988.06 782.82 1988.11 788.75C1988.18 794.063 1988.25 799.376 1988.33 804.85C1986.76 818.277 1986.76 818.277 1972.91 832.567C1956.42 833.962 1956.42 833.962 1937.43 833.46C1927.98 833.266 1927.98 833.266 1918.34 833.069C1913.51 832.903 1908.67 832.737 1903.69 832.567C1900.43 803.296 1898.79 775.96 1903.69 746.831C1916.51 732.573 1927.84 725.997 1944.92 718.002C1960 710.654 1968.5 702.079 1979.83 689.675Z" fill="#FB3E81"/>
<path d="M203.783 102.87C209.976 102.86 216.169 102.851 222.549 102.842C229.063 102.869 235.578 102.897 242.289 102.925C252.06 102.884 252.06 102.884 262.029 102.842C271.319 102.856 271.319 102.856 280.796 102.87C286.516 102.878 292.236 102.886 298.129 102.894C311.514 103.819 311.514 103.819 318.437 110.963C318.72 127.631 318.73 144.307 318.437 160.975C313.868 160.975 309.299 160.975 304.592 160.975C302.307 168.048 300.023 175.122 297.669 182.409C290.816 177.694 283.963 172.978 276.902 168.12C257.836 165.972 239.337 164.481 220.224 163.654C212.44 163.24 212.44 163.24 204.499 162.817C191.716 162.145 178.929 161.552 166.142 160.975C165.848 144.307 165.858 127.631 166.142 110.963C177.144 99.6077 188.564 102.891 203.783 102.87Z" fill="#5AD6AB"/>
<path d="M1342.96 418.18C1370.17 418.18 1384.56 419.335 1405.67 437.772C1418.47 452.286 1430.19 465.573 1439.88 482.481C1432.31 505.906 1428.38 509.498 1409.59 523.116C1405.4 526.238 1401.2 529.361 1396.88 532.577C1384.5 539.638 1384.5 539.638 1363.73 539.638C1352.13 526.828 1352.13 526.828 1340.8 509.72C1336.97 504.167 1333.14 498.613 1329.2 492.891C1322.2 475.337 1322.2 475.337 1327.52 456.666C1330.33 451.039 1333.15 445.412 1336.04 439.614C1338.33 432.541 1340.61 425.468 1342.96 418.18Z" fill="#CBD0EC"/>
<path d="M249.209 160.974C251.493 160.974 253.777 160.974 256.131 160.974C258.415 271.786 260.7 382.599 263.054 496.769C523.478 499.127 783.902 501.485 1052.22 503.914C1052.22 506.271 1052.22 508.629 1052.22 511.058C948.541 511.225 844.864 511.351 741.186 511.428C693.05 511.465 644.914 511.516 596.779 511.597C550.368 511.676 503.957 511.718 457.547 511.736C439.796 511.749 422.046 511.775 404.295 511.814C379.528 511.865 354.762 511.873 329.995 511.869C322.576 511.895 315.157 511.921 307.513 511.947C300.805 511.937 294.097 511.928 287.186 511.917C278.39 511.927 278.39 511.927 269.416 511.937C256.131 511.058 256.131 511.058 249.209 503.914C248.564 493.167 248.395 482.389 248.423 471.622C248.423 464.756 248.424 457.891 248.424 450.818C248.46 443.353 248.496 435.889 248.533 428.198C248.542 420.596 248.552 412.994 248.562 405.162C248.601 380.774 248.688 356.386 248.776 331.997C248.811 315.508 248.842 299.019 248.871 282.529C248.947 242.011 249.063 201.492 249.209 160.974Z" fill="#847BFC"/>
<path d="M1765.24 411.035C1805.51 413.902 1830.58 418.618 1862.15 446.758C1886.14 479.988 1893.91 504.273 1892.2 545.666C1888.83 567.74 1880.34 585.048 1869.08 603.939C1862.22 603.939 1855.37 603.939 1848.31 603.939C1848.39 599.362 1848.47 594.784 1848.55 590.068C1848.92 553.309 1847.49 518.702 1841.39 482.481C1834.53 480.123 1827.68 477.766 1820.62 475.336C1811.13 463.648 1801.92 451.711 1792.93 439.613C1783.83 429.958 1774.64 420.387 1765.24 411.035Z" fill="#773ABF"/>
<path d="M1744.47 475.336C1799.3 503.628 1799.3 503.628 1855.23 532.493C1852.94 541.923 1850.66 551.354 1848.31 561.071C1786.22 578.366 1786.22 578.366 1757.88 566.429C1744.47 553.926 1744.47 553.926 1737.55 539.637C1735.93 492.959 1735.93 492.959 1744.47 475.336Z" fill="#735A4D"/>
<path d="M401.503 96.6738C403.788 96.6738 406.072 96.6738 408.426 96.6738C408.426 212.202 408.426 327.73 408.426 446.758C623.162 446.758 837.898 446.758 1059.14 446.758C1059.14 449.116 1059.14 451.474 1059.14 453.903C842.121 453.903 625.1 453.903 401.503 453.903C401.503 336.017 401.503 218.132 401.503 96.6738Z" fill="#583EBA"/>
<path d="M664.559 332.445C685.119 332.445 705.679 332.445 726.862 332.445C726.862 370.169 726.862 407.892 726.862 446.759C706.302 446.759 685.742 446.759 664.559 446.759C664.559 409.035 664.559 371.312 664.559 332.445Z" fill="#AEABFD"/>
<path d="M740.706 318.155C758.981 318.155 777.257 318.155 796.086 318.155C796.086 360.594 796.086 403.033 796.086 446.758C777.81 446.758 759.535 446.758 740.706 446.758C740.706 404.319 740.706 361.88 740.706 318.155Z" fill="#B5B1FD"/>
<path d="M1744.47 396.746C1770.31 405.634 1781.21 419.411 1799.85 439.613C1803.99 443.592 1808.13 447.57 1812.4 451.67C1820.62 461.047 1820.62 461.047 1820.62 475.336C1829.76 477.694 1838.89 480.051 1848.31 482.481C1848.31 496.627 1848.31 510.773 1848.31 525.348C1823.87 520.328 1803.71 510.444 1781.68 498.556C1775.02 495.056 1768.36 491.556 1761.51 487.951C1741.65 473.245 1736.36 463.917 1730.62 439.613C1736.68 415.947 1736.68 415.947 1744.47 396.746Z" fill="#FB528E"/>
<path d="M380.739 1182.65C410.437 1182.65 440.134 1182.65 470.732 1182.65C470.732 1201.51 470.732 1220.37 470.732 1239.81C518.704 1239.81 566.677 1239.81 616.104 1239.81C616.104 1242.17 616.104 1244.52 616.104 1246.95C583.697 1247.13 551.29 1247.26 518.883 1247.34C507.85 1247.38 496.818 1247.43 485.785 1247.49C469.96 1247.58 454.135 1247.62 438.309 1247.65C433.348 1247.69 428.387 1247.72 423.275 1247.76C411.401 1247.76 399.528 1247.39 387.662 1246.95C380.739 1239.81 380.739 1239.81 380.063 1226.61C380.288 1211.95 380.514 1197.3 380.739 1182.65Z" fill="#7053AF"/>
<path d="M519.188 1182.65C560.307 1182.65 601.427 1182.65 643.792 1182.65C643.792 1196.8 643.792 1210.94 643.792 1225.52C634.655 1225.52 625.517 1225.52 616.102 1225.52C616.102 1230.23 616.102 1234.95 616.102 1239.81C584.121 1239.81 552.139 1239.81 519.188 1239.81C519.188 1220.95 519.188 1202.08 519.188 1182.65Z" fill="#7353BF"/>
<path d="M449.963 1118.35C475.828 1127.25 478.951 1137.17 491.498 1161.22C495.924 1154 500.35 1146.78 504.91 1139.34C514.294 1127.45 514.294 1127.45 526.111 1118.35C547.844 1116.29 567.442 1119.46 588.413 1125.49C595.336 1132.64 595.336 1132.64 596.634 1150.05C595.336 1168.36 595.336 1168.36 581.491 1182.65C559.858 1183.54 559.858 1183.54 539.956 1182.65C560.723 1168.36 560.723 1168.36 574.568 1161.22C576.852 1154.14 579.137 1147.07 581.491 1139.78C548.794 1152.05 548.794 1152.05 521.784 1173.27C512.266 1182.65 512.266 1182.65 496.257 1186.22C469.748 1181.13 456.161 1164.97 436.118 1146.93C420.768 1140.83 420.768 1140.83 408.428 1139.78C416.401 1157.42 422.604 1168.7 436.118 1182.65C402.371 1176.4 402.371 1176.4 394.583 1168.36C393.718 1150.5 393.718 1150.5 394.583 1132.64C396.867 1130.28 399.152 1127.92 401.506 1125.49C417.7 1127.55 433.861 1129.92 449.963 1132.64C449.963 1127.92 449.963 1123.21 449.963 1118.35Z" fill="#926DD9"/>
<path d="M408.427 1139.78C442.626 1142.99 453.96 1151.05 477.652 1175.51C494.353 1180.87 494.353 1180.87 512.264 1175.51C526.225 1163.74 540.075 1151.84 553.799 1139.78C562.937 1139.78 572.075 1139.78 581.489 1139.78C580.191 1153.18 580.191 1153.18 574.567 1168.36C554.553 1179.23 541.905 1182.65 519.187 1182.65C519.187 1201.51 519.187 1220.37 519.187 1239.81C503.196 1239.81 487.205 1239.81 470.729 1239.81C470.729 1220.95 470.729 1202.08 470.729 1182.65C463.019 1181.77 455.309 1180.88 447.366 1179.97C422.272 1175.51 422.272 1175.51 408.427 1161.22C408.427 1154.14 408.427 1147.07 408.427 1139.78Z" fill="#F0EEF5"/>
<path d="M2014.45 389.601C2044.15 389.601 2073.84 389.601 2104.44 389.601C2104.44 422.609 2104.44 455.617 2104.44 489.625C2087.31 482.552 2087.31 482.552 2069.83 475.336C2069.83 470.62 2069.83 465.905 2069.83 461.046C2065.26 461.046 2060.69 461.046 2055.98 461.046C2055.98 456.331 2055.98 451.616 2055.98 446.757C2051.41 446.757 2046.85 446.757 2042.14 446.757C2014.45 408.092 2014.45 408.092 2014.45 389.601Z" fill="#7D41D5"/>
<path d="M1896.77 289.578C1901.33 289.578 1905.9 289.578 1910.61 289.578C1911.71 294.054 1912.81 298.53 1913.94 303.142C1923.01 340.707 1923.01 340.707 1949.98 365.043C1955.27 366.074 1960.55 367.106 1965.99 368.169C1952.15 382.458 1952.15 382.458 1938.73 386.923C1915.88 402.645 1911.51 427.609 1903.69 453.904C1901.4 453.904 1899.12 453.904 1896.77 453.904C1894.48 432.684 1892.2 411.465 1889.84 389.602C1873.85 384.887 1857.86 380.171 1841.39 375.313C1857.72 358.455 1867.55 357.513 1889.84 353.879C1892.13 332.66 1894.41 311.441 1896.77 289.578Z" fill="#FFCA21"/>
<path d="M1329.12 803.987C1335.97 803.987 1342.83 803.987 1349.89 803.987C1361.34 848.201 1369.34 892.245 1375.85 937.502C1376.89 944.101 1377.93 950.699 1379.01 957.498C1387.55 1016.9 1387.55 1016.9 1370.65 1046.9C1368.37 1046.9 1366.09 1046.9 1363.73 1046.9C1358.76 1018.06 1353.84 989.203 1348.94 960.343C1347.28 950.536 1345.6 940.731 1343.91 930.928C1341.47 916.798 1339.08 902.66 1336.69 888.522C1335.24 880.029 1333.79 871.536 1332.3 862.785C1329.54 842.734 1328.47 824.185 1329.12 803.987Z" fill="#B48BF4"/>
<path d="M387.662 1246.95C463.048 1246.95 538.434 1246.95 616.104 1246.95C616.104 1256.38 616.104 1265.81 616.104 1275.53C538.793 1277.65 464.301 1271.39 387.662 1261.24C387.662 1256.52 387.662 1251.81 387.662 1246.95Z" fill="#0B090D"/>
<path d="M526.11 353.878C544.386 353.878 562.661 353.878 581.49 353.878C581.49 384.528 581.49 415.178 581.49 446.758C563.215 446.758 544.94 446.758 526.11 446.758C526.11 416.107 526.11 385.457 526.11 353.878Z" fill="#B4B0FC"/>
<path d="M623.026 1275.53C696.127 1275.53 769.229 1275.53 844.546 1275.53C844.546 1284.96 844.546 1294.39 844.546 1304.11C769.762 1306.6 697.185 1298.87 623.026 1289.82C623.026 1285.1 623.026 1280.39 623.026 1275.53Z" fill="#1A1303"/>
<path d="M713.016 1175.51C724.265 1193.37 724.265 1193.37 733.783 1211.23C738.067 1205.33 742.35 1199.44 746.763 1193.37C751.617 1187.47 756.472 1181.58 761.473 1175.51C766.042 1175.51 770.611 1175.51 775.318 1175.51C777.603 1182.58 779.887 1189.65 782.241 1196.94C789.094 1196.94 795.947 1196.94 803.008 1196.94C803.008 1201.66 803.008 1206.37 803.008 1211.23C776.415 1229.57 748.917 1227.14 718.208 1226.41C713.05 1226.35 707.892 1226.28 702.578 1226.22C689.904 1226.05 677.231 1225.79 664.558 1225.52C657.203 1212.12 657.203 1212.12 650.713 1196.94C652.998 1192.22 655.282 1187.51 657.636 1182.65C665.988 1182.87 665.988 1182.87 674.509 1183.1C694.264 1182.6 694.645 1175.51 713.016 1175.51Z" fill="#944F0E"/>
<path d="M1270.71 55.5915C1287.58 60.9499 1287.58 60.9499 1301.43 75.2391C1303.16 96.6729 1303.16 96.6729 1301.43 118.107C1287.58 132.396 1287.58 132.396 1267.25 135.075C1246.05 132.396 1246.05 132.396 1232.64 120.339C1223.28 99.3127 1224.52 89.6334 1232.2 68.0945C1252.97 53.8054 1252.97 53.8054 1270.71 55.5915Z" fill="#909090"/>
<path d="M1391.42 589.65C1431.67 594.537 1460.2 615.499 1487.04 645.914C1502.69 668.994 1507.18 683.335 1509.11 711.108C1482.14 707.265 1471.55 695.461 1454.16 674.492C1449.38 668.736 1444.61 662.98 1439.69 657.049C1422.54 635.211 1406.75 612.884 1391.42 589.65Z" fill="#6B56CF"/>
<path d="M177.389 503.021C188.954 503.464 188.954 503.464 200.753 503.915C211.728 521.904 214.857 530.197 212.435 551.694C207.675 568.216 207.675 568.216 200.753 575.36C176.957 576.7 176.957 576.7 152.295 575.36C138.45 561.071 138.45 561.071 136.72 539.637C139.346 507.108 146.125 504.134 177.389 503.021Z" fill="#939393"/>
<path d="M616.103 1225.52C664.076 1229.06 664.076 1229.06 713.018 1232.66C713.018 1246.81 713.018 1260.96 713.018 1275.53C681.036 1275.53 649.054 1275.53 616.103 1275.53C616.103 1259.03 616.103 1242.52 616.103 1225.52Z" fill="#D77818"/>
<path d="M103.836 803.987C118.733 827.049 119.071 834.595 117.681 861.144C123.249 862.028 128.817 862.912 134.555 863.823C140.408 865.297 146.262 866.77 152.293 868.289C154.578 873.004 156.862 877.719 159.216 882.578C145.509 884.935 131.803 887.293 117.681 889.722C115.396 908.584 113.112 927.446 110.758 946.879C92.999 928.55 93.1721 914.894 89.9909 889.722C78.5688 887.365 67.1467 885.007 55.3784 882.578C64.8969 871.861 64.8969 871.861 76.1459 861.144C80.7148 861.144 85.2836 861.144 89.9909 861.144C94.5598 842.282 99.1286 823.421 103.836 803.987Z" fill="#F5C84D"/>
<path d="M1190.67 461.046C1190.67 468.12 1190.67 475.193 1190.67 482.48C1195.24 482.48 1199.81 482.48 1204.51 482.48C1202.23 496.627 1199.95 510.773 1197.59 525.348C1158.65 533.385 1158.65 533.385 1135.29 525.348C1127.07 503.467 1127.07 503.467 1121.44 482.48C1126.01 482.48 1130.58 482.48 1135.29 482.48C1135.29 475.407 1135.29 468.334 1135.29 461.046C1158.06 453.212 1167.92 455.334 1190.67 461.046Z" fill="#DDD9FA"/>
<path d="M1813.69 1039.76C1807.64 1074.59 1807.64 1074.59 1799.85 1082.63C1787.02 1083.14 1774.18 1083.23 1761.34 1083.07C1754.34 1083.01 1747.33 1082.94 1740.12 1082.88C1734.7 1082.79 1729.28 1082.71 1723.7 1082.63C1716.85 1068.48 1710 1054.33 1702.93 1039.76C1717.5 1038.37 1732.06 1037.04 1746.63 1035.74C1754.74 1034.99 1762.86 1034.25 1771.21 1033.48C1792.93 1032.61 1792.93 1032.61 1813.69 1039.76Z" fill="#232896"/>
<path d="M1460.65 503.915C1474.35 515.704 1488.06 527.492 1502.18 539.638C1490.72 555.409 1483.48 565.067 1467.57 575.361C1449.14 577.63 1432.13 577.179 1413.62 575.919C1398.05 574.091 1398.05 574.091 1384.5 582.505C1393.22 555.493 1404.82 548.405 1426.47 531.154C1432.83 526.042 1439.19 520.931 1445.75 515.665C1450.66 511.787 1455.58 507.91 1460.65 503.915Z" fill="#704DCF"/>
<path d="M477.651 1268.39C489.073 1268.39 500.495 1268.39 512.263 1268.39C512.263 1308.47 512.263 1348.55 512.263 1389.84C500.841 1389.84 489.419 1389.84 477.651 1389.84C477.651 1349.76 477.651 1309.68 477.651 1268.39Z" fill="#FDFDFD"/>
<path d="M1633.71 1389.84C1709.1 1389.84 1784.48 1389.84 1862.15 1389.84C1859.87 1396.92 1857.58 1403.99 1855.23 1411.28C1782.13 1411.28 1709.03 1411.28 1633.71 1411.28C1633.71 1404.2 1633.71 1397.13 1633.71 1389.84Z" fill="#1E268A"/>
<path d="M1920.13 523.116C1938.3 525.348 1938.3 525.348 1949.82 539.777C1952.87 544.446 1955.92 549.116 1959.07 553.927C1950.66 562.369 1942.12 570.68 1933.54 578.933C1928.8 583.575 1924.06 588.216 1919.18 592.999C1900.87 605.926 1890.8 606.138 1869.07 603.939C1873.52 592.171 1878 580.414 1882.49 568.662C1884.98 562.114 1887.47 555.566 1890.03 548.819C1899.47 525.92 1899.47 525.92 1920.13 523.116Z" fill="#F93E83"/>
<path d="M1986.76 353.878C2025.59 353.878 2064.43 353.878 2104.44 353.878C2104.44 365.666 2104.44 377.455 2104.44 389.601C2065.61 389.601 2026.77 389.601 1986.76 389.601C1979.84 368.167 1979.84 368.167 1986.76 353.878Z" fill="#15084E"/>
<path d="M1190.67 1296.96C1222.19 1301.38 1248.02 1314.59 1275.9 1329.56C1282.6 1333.09 1282.6 1333.09 1289.44 1336.69C1300.38 1342.46 1311.29 1348.29 1322.2 1354.12C1322.2 1363.55 1322.2 1372.98 1322.2 1382.7C1290.17 1372.75 1262.34 1359.16 1233.07 1342.51C1225.09 1338 1217.11 1333.48 1208.89 1328.84C1202.88 1325.39 1196.87 1321.95 1190.67 1318.4C1190.67 1311.32 1190.67 1304.25 1190.67 1296.96Z" fill="#3B2590"/>
<path d="M595.335 382.458C613.61 382.458 631.886 382.458 650.715 382.458C650.715 403.677 650.715 424.896 650.715 446.759C632.44 446.759 614.164 446.759 595.335 446.759C595.335 425.539 595.335 404.32 595.335 382.458Z" fill="#B4B0FD"/>
<path d="M1439.88 482.48C1449.02 487.196 1458.15 491.911 1467.57 496.77C1441.24 524.772 1413.46 550.29 1384.5 575.36C1377.65 570.645 1370.79 565.929 1363.73 561.071C1363.73 553.998 1363.73 546.925 1363.73 539.637C1371.16 535.511 1378.58 531.385 1386.23 527.134C1407.36 514.747 1423.58 501.317 1439.88 482.48Z" fill="#1B0D54"/>
</svg>
