<svg width="473" height="647" viewBox="0 0 473 647" fill="none" xmlns="http://www.w3.org/2000/svg">
<g filter="url(#filter0_d_27_48)">
<path d="M354.203 113.169C354.203 115.303 354.203 117.438 354.203 119.636C351.006 122 351.006 122 346.753 123.88C326.713 134.632 314.205 151.012 306.522 171.371C305.207 175.99 304.097 180.643 303.01 185.315C302.714 186.517 302.419 187.72 302.115 188.959C298.189 205.668 297.632 222.507 297.475 239.576C297.401 242.3 297.401 242.3 297.326 245.079C297.236 256.284 298.221 263.799 304.819 273.223C318.875 277.672 336.696 276.063 350.172 270.596C363.755 263.106 370.461 249.979 374.638 236.039C378.675 216.893 378.479 197.273 378.044 177.838C379.73 178.371 381.415 178.905 383.152 179.454C383.714 186.39 384.276 193.326 384.855 200.472C386.471 199.405 388.087 198.338 389.751 197.238C394.498 193.714 394.498 193.714 398.478 194.005C399.04 195.605 399.602 197.206 400.181 198.855C398.952 199.222 397.723 199.588 396.456 199.966C390.513 202.6 387.365 205.389 383.152 210.172C381.815 215.584 381.815 215.584 381.343 221.59C379.469 239.471 374.691 258.928 359.451 270.95C343.459 281.052 324.656 281.858 306.09 278.768C301.074 277.589 296.143 276.257 291.196 274.84C287.65 273.924 284.102 273.015 280.553 272.112C277.856 271.407 275.159 270.7 272.464 269.99C271.726 270.724 270.989 271.457 270.229 272.213C267.171 275.164 267.171 275.164 262.247 278.074C263.357 278.993 264.468 279.912 265.612 280.859C284.636 296.815 299.864 314.67 308.225 337.892C308.225 339.492 308.225 341.093 308.225 342.742C307.101 342.742 305.977 342.742 304.819 342.742C303.974 341.081 303.129 339.42 302.258 337.709C285.595 305.268 267.145 281.073 229.944 268.892C225.064 267.441 220.169 266.141 215.211 264.957C213.205 264.247 213.205 264.247 211.16 263.523C210.598 261.923 210.036 260.322 209.457 258.673C219.518 260.839 229.179 263.05 238.619 267.06C247.103 270.425 254.838 271.485 263.949 269.99C272.112 265.504 275.052 255.618 277.573 247.356C279.393 239.658 279.342 234.071 275.091 227.147C264.216 214.512 249.649 206.905 235 198.855C232.154 197.257 229.309 195.657 226.466 194.055C223.6 192.453 220.733 190.853 217.865 189.256C215.86 188.138 215.86 188.138 213.815 186.998C199.695 179.252 185.905 173.163 169.332 172.887C159.134 175.879 151.348 182.661 145.917 191.378C135.511 215.457 137.024 243.155 136.897 268.645C136.876 271.612 136.876 271.612 136.853 274.639C136.777 285.07 136.73 295.501 136.708 305.932C136.685 314.54 136.616 323.145 136.498 331.752C136.358 342.204 136.292 352.654 136.282 363.106C136.266 367.074 136.226 371.041 136.158 375.008C136.071 380.538 136.081 386.061 136.114 391.592C136.067 393.222 136.02 394.852 135.971 396.532C136.176 407.374 136.176 407.374 141.28 412.17C148.23 416.654 155.635 420.114 163.498 422.927C165.333 423.584 167.167 424.242 169.057 424.919C170.974 425.577 172.891 426.234 174.867 426.912C176.873 427.609 178.879 428.306 180.946 429.024C197.893 434.754 214.944 438.983 232.593 442.22C235.38 442.734 238.163 443.273 240.94 443.836C242.349 444.12 243.759 444.403 245.211 444.695C246.441 444.948 247.671 445.2 248.939 445.46C262.127 447.527 275.254 448.084 288.602 448.099C290.252 448.105 291.902 448.11 293.602 448.116C297.073 448.124 300.545 448.128 304.017 448.127C309.24 448.131 314.463 448.16 319.686 448.191C344.651 448.261 368.768 447.073 393.05 441.058C394.449 440.72 395.847 440.381 397.288 440.033C415.123 435.55 433.071 429.868 449.565 421.96C449.605 396.929 449.635 371.898 449.654 346.867C449.662 335.241 449.674 323.616 449.694 311.991C449.711 301.845 449.722 291.699 449.726 281.553C449.728 276.193 449.734 270.833 449.745 265.473C449.945 169.559 449.945 169.559 423.596 144.089C406.958 129.349 377.84 113.169 354.203 113.169ZM311.631 410.643C311.631 412.244 311.631 413.845 311.631 415.494C302.639 415.494 293.648 415.494 284.384 415.494C283.822 413.36 283.26 411.225 282.681 409.027C292.322 405.976 302.508 406.174 311.631 410.643Z" fill="#554634"/>
<path d="M124.312 506.029C119.203 507.646 119.203 507.646 117.5 510.879C117.082 515.529 116.776 520.139 116.556 524.798C116.484 526.279 116.412 527.759 116.339 529.285C115.469 549.556 115.54 569.844 115.575 590.128C115.585 595.914 115.579 601.699 115.569 607.485C115.563 611.975 115.565 616.466 115.569 620.957C115.571 624.128 115.566 627.3 115.561 630.471C115.569 633.317 115.569 633.317 115.577 636.22C115.578 637.894 115.58 639.569 115.581 641.295C115.797 645.066 115.797 645.066 117.5 646.683C122.001 646.841 126.457 646.893 130.958 646.877C132.385 646.878 133.812 646.88 135.282 646.881C140.101 646.884 144.92 646.875 149.739 646.866C153.179 646.866 156.618 646.866 160.058 646.867C169.427 646.867 178.796 646.858 188.165 646.847C197.945 646.836 207.724 646.835 217.504 646.834C236.037 646.829 254.57 646.815 273.103 646.799C294.197 646.781 315.29 646.772 336.383 646.764C379.787 646.747 423.191 646.719 466.594 646.683C469.134 641.861 468.519 636.94 468.49 631.655C468.491 630.44 468.491 629.225 468.491 627.974C468.49 623.95 468.477 619.926 468.463 615.902C468.46 613.116 468.458 610.329 468.456 607.543C468.45 600.202 468.433 592.861 468.414 585.52C468.397 578.032 468.389 570.544 468.38 563.056C468.362 548.358 468.333 533.66 468.297 518.963C461.916 515.658 461.916 515.658 458.045 516.299C456.838 516.748 455.631 517.198 454.388 517.662C453.021 518.15 451.654 518.638 450.245 519.142C448.065 519.953 448.065 519.953 445.84 520.782C432.341 525.554 419.012 529.288 404.944 532.181C400.601 533.076 396.278 534.063 391.979 535.136C340.479 547.392 278.13 545.77 226.026 537.479C221.135 536.708 216.235 536.042 211.326 535.382C184.371 531.575 144.502 525.198 124.312 506.029Z" fill="#303030"/>
<path d="M137.935 415.494C137.441 425.121 136.956 434.748 136.48 444.376C136.317 447.638 136.152 450.901 135.984 454.163C134.958 474.164 134.274 494.087 134.529 514.113C157.364 525.32 180.75 532.152 206.051 536.443C207.905 536.758 209.759 537.073 211.67 537.397C241.36 542.101 270.918 543.875 300.987 543.82C302.637 543.82 304.286 543.82 305.985 543.82C327.849 543.784 349.43 543.02 371.125 540.384C373.227 540.131 375.328 539.877 377.493 539.616C391.767 537.665 405.108 534.242 418.913 530.28C428.466 527.612 438.02 524.945 447.862 522.196C447.862 491.252 447.862 460.309 447.862 428.427C439.433 431.628 431.004 434.829 422.319 438.127C386.731 448.686 351.469 453.272 314.312 453.188C309.643 453.183 304.975 453.221 300.306 453.262C253.103 453.421 200.905 445.542 158.37 425.194C156.765 424.452 155.16 423.71 153.507 422.946C149.603 421.126 142.006 415.494 137.935 415.494Z" fill="#FEFEFE"/>
<path d="M40.4524 295.12C19.4755 311.222 15.0749 334.003 12.0236 358.172C9.79216 378.864 9.34805 409.164 23.5298 426.68C33.794 437.358 46.0809 443.467 61.3794 444.792C76.8762 445.079 90.1119 442.164 102.282 432.711C117.845 418.133 118.023 399.396 118.892 379.795C118.984 378.049 119.077 376.302 119.172 374.503C119.516 362.22 118.309 350.249 116.764 338.064C116.578 336.501 116.391 334.938 116.2 333.328C113.801 315.948 107.839 303.635 93.3487 292.493C76.5693 282.498 56.7992 286.885 40.4524 295.12ZM62.6923 298.379C63.8876 301.293 60.6462 301.182 61.1538 304.735C60.6599 305.593 63.4116 305.527 62.9027 306.412C60.1231 312.039 59.3416 317.929 58.3328 324.019C58.1126 325.307 57.8924 326.594 57.6656 327.921C55.9646 338.172 51.7745 344.159 51.1538 354.523C48.906 355.057 53.4697 351.502 51.1538 352.051C51.1538 345.649 48.8461 345.583 48.8461 338.986C46.5983 337.919 45.3928 337.261 43.0769 336.161C40.4043 333.624 38.4388 332.682 38.3238 329.172C38.3868 323.797 38.5043 322.071 41.836 317.552C45.3969 314.928 45.3969 314.928 49.1465 314.622C50.7961 314.072 50.7961 314.072 52.4791 313.51C54.0822 310.226 55.0961 309.785 56.1538 305.794C57.1105 301.87 56.9703 303.495 58.4615 300.144C60.1474 299.611 60.9553 298.928 62.6923 298.379ZM93.3487 307.043C109.512 342.939 104.695 388.276 89.9121 423.815C88.8068 426.395 87.6751 428.963 86.5371 431.53C84.8512 431.53 83.1654 431.53 81.4284 431.53C82.1537 424.127 83.9437 417.671 86.4307 410.614C95.8585 382.004 98.9946 347.961 91.5384 318.859C90.5084 314.342 88.0231 311.642 88.24 307.043C89.9259 307.043 91.6117 307.043 93.3487 307.043Z" fill="#CBC8C5"/>
<path d="M149.855 29.1006C149.811 30.3323 149.767 31.5639 149.722 32.8329C148.782 49.0752 144.082 59.4316 134.529 72.7517C133.445 74.932 132.381 77.1219 131.336 79.3195C128.934 84.1174 126.663 86.855 122.183 90.0302C117.5 93.7689 117.5 93.7689 116.576 97.5012C117.942 103.933 122.404 106.694 127.611 110.542C128.627 111.324 129.644 112.105 130.691 112.91C133.653 115.177 136.641 117.411 139.638 119.636C140.992 120.659 142.347 121.683 143.742 122.737C144.916 123.614 146.091 124.492 147.301 125.396C148.473 126.277 149.645 127.159 150.853 128.067C154.143 130.377 157.423 132.439 160.884 134.496C167.043 138.313 172.203 141.854 177.102 147.12C178.455 154.612 177.482 160.844 175.399 168.137C177.137 168.437 177.137 168.437 178.911 168.744C196.646 172.326 212.543 179.774 227.929 188.75C231.594 190.771 231.594 190.771 235 190.771C235.256 189.731 235.512 188.691 235.776 187.62C245.936 139.83 245.936 139.83 277.573 103.469C282.575 101.026 287.651 98.9227 292.899 97.0023C282.559 87.1863 254.858 86.0158 240.681 85.5298C224.764 86.0257 210.027 89.294 198.814 100.438C189.686 111.498 186.497 124.949 183.421 138.437C183.021 139.702 182.622 140.967 182.21 142.27C181.086 142.804 179.962 143.337 178.804 143.887C178.057 127.671 183.859 110.279 195.049 97.8232C206.347 86.752 219.472 83.7359 235 80.8352C228.962 74.331 221.806 70.4362 214.033 66.0828C203.871 60.2953 193.846 54.3874 184.02 48.0969C182.986 47.4363 181.952 46.7756 180.887 46.095C178.884 44.8148 176.881 43.5344 174.878 42.2537C170.36 39.3785 165.81 36.5529 161.243 33.7486C159.041 32.3919 159.041 32.3919 156.793 31.0078C153.261 29.1006 153.261 29.1006 149.855 29.1006Z" fill="#554533"/>
<path d="M292.899 95.3856C293.46 98.0532 294.022 100.721 294.601 103.469C293.197 103.536 291.792 103.603 290.344 103.671C278.771 106.418 268.479 114.881 262.246 124.486C254.241 138.576 249.78 153.689 245.324 169.047C244.781 170.894 244.238 172.741 243.678 174.644C242.942 177.278 242.942 177.278 242.191 179.966C241.747 181.541 241.304 183.115 240.847 184.737C240.051 189.5 240.285 192.653 241.812 197.238C245.537 200.105 245.537 200.105 250.326 202.695C270.202 213.645 270.202 213.645 282.681 231.189C284.542 243.163 281.266 253.744 277.572 265.14C283.192 266.74 288.812 268.341 294.601 269.99C294.329 267.666 294.057 265.343 293.777 262.948C289.419 221.205 292.167 172.328 320.198 138.039C328.704 128.456 337.517 122.275 349.094 116.403C350.78 115.336 352.466 114.269 354.203 113.169C341.665 108.109 328.981 104.189 315.888 100.64C314.044 100.129 312.2 99.6187 310.3 99.0927C296.777 95.3856 296.777 95.3856 292.899 95.3856Z" fill="#554634"/>
<path d="M110.689 1.6167C110.127 3.21724 109.565 4.81778 108.986 6.46682C110.672 8.86763 110.672 8.86763 112.391 11.3169C112.919 16.1486 112.919 16.1486 112.844 21.6487C112.848 23.6973 112.853 25.7459 112.857 27.8566C112.85 28.9244 112.843 29.9922 112.835 31.0924C112.817 34.3208 112.837 37.5493 112.857 40.7776C112.85 43.863 112.85 43.863 112.844 47.0108C112.84 48.8849 112.836 50.7589 112.832 52.6898C112.209 60.4886 111.483 67.4112 105.154 72.7518C97.784 75.2962 92.3715 73.422 85.1451 71.1351C83.2478 74.7376 83.1231 76.9253 82.9256 80.9268C82.8541 82.2997 82.7826 83.6725 82.7089 85.087C82.6381 86.5969 82.5672 88.1068 82.4943 89.6625C82.4137 91.2508 82.3331 92.8391 82.2501 94.4755C81.9841 99.755 81.7287 105.035 81.4732 110.315C81.2896 113.99 81.1052 117.664 80.92 121.339C80.4326 131.047 79.9539 140.755 79.4775 150.464C78.7171 165.934 77.9444 181.404 77.1701 196.874C76.9022 202.256 76.6383 207.637 76.3751 213.019C75.6142 228.426 74.8214 243.815 73.5443 259.192C73.1034 265.169 73.0588 271.073 73.1183 277.063C73.1337 279.11 73.1491 281.156 73.1649 283.265C73.1847 284.753 73.2044 286.241 73.2248 287.774C75.4726 287.774 77.7204 287.774 80.0364 287.774C82.2809 283.512 82.2085 280.003 82.5038 275.236C82.6292 273.268 82.7546 271.299 82.8837 269.271C83.0147 267.092 83.1454 264.913 83.2759 262.734C83.4165 260.47 83.5576 258.207 83.6992 255.943C84.0774 249.861 84.4453 243.778 84.8108 237.695C85.038 233.928 85.2682 230.16 85.4995 226.393C87.6016 192.13 89.5139 157.864 90.9418 123.569C91.4758 110.892 92.0978 98.295 93.6596 85.6854C97.5933 87.286 101.527 88.8865 105.58 90.5356C105.018 92.6696 104.456 94.8037 103.877 97.0024C106.125 97.0024 108.373 97.0024 110.689 97.0024C110.127 98.0694 109.565 99.1364 108.986 100.236C108.781 102.405 108.672 104.582 108.615 106.759C108.574 108.103 108.534 109.446 108.492 110.83C108.453 112.284 108.414 113.737 108.374 115.235C108.265 118.296 108.154 121.358 108.041 124.42C107.869 129.259 107.708 134.098 107.584 138.938C107.459 143.602 107.282 148.262 107.096 152.924C107.059 155.099 107.059 155.099 107.02 157.318C106.846 161.101 106.631 164.485 105.58 168.137C101.582 171.418 101.582 171.418 97.0654 172.988C93.072 179.469 93.3013 185.51 93.4467 192.893C93.4774 194.921 93.5082 196.949 93.5398 199.038C93.5793 200.578 93.6189 202.118 93.6596 203.705C98.4122 204.29 103.166 204.86 107.921 205.423C109.274 205.591 110.626 205.758 112.019 205.931C122.223 207.122 122.223 207.122 126.015 205.322C126.107 201.178 126.174 197.037 126.227 192.893C126.27 191.144 126.27 191.144 126.314 189.36C126.378 182.704 126.306 177.144 122.609 171.371C119.071 170.356 119.071 170.356 115.797 169.754C115.849 168.544 115.9 167.333 115.954 166.086C116.965 141.969 117.782 117.906 117.5 93.769C119.025 93.1563 119.025 93.1563 120.58 92.5312C129.927 87.5326 135.24 76.8214 139.638 67.9017C140.794 65.9737 141.965 64.0541 143.15 62.1422C148.041 53.9035 150.347 47.3573 151.132 37.8916C151.299 36.0889 151.466 34.2862 151.638 32.4289C151.559 27.5139 150.891 25.107 148.152 21.0172C145.904 21.0172 143.657 21.0172 141.341 21.0172C141.36 22.9637 141.38 24.9102 141.401 26.9156C141.417 29.4628 141.432 32.0099 141.447 34.5571C141.461 35.8409 141.476 37.1246 141.49 38.4473C141.733 45.3065 141.733 45.3065 139.638 51.7346C139.544 50.6741 139.449 49.6136 139.352 48.5209C138.922 43.731 138.482 38.942 138.041 34.1529C137.819 31.649 137.819 31.649 137.592 29.0944C137.37 26.703 137.37 26.703 137.143 24.2632C137.01 22.7901 136.876 21.3169 136.738 19.7991C136.232 16.1671 136.232 16.1671 134.529 12.9336C132.843 12.9336 131.157 12.9336 129.42 12.9336C129.104 11.9667 128.788 10.9997 128.463 10.0034C124.595 4.41535 117.738 1.6167 110.689 1.6167ZM122.609 12.9336C128.586 19.516 128.449 25.9861 128.236 34.2666C127.495 40.745 122.609 27.824 122.609 41.667C122.609 33.7181 121.485 51.7346 120.906 51.7346C120.906 38.9303 120.906 26.126 120.906 12.9336C121.468 12.9336 122.03 12.9336 122.609 12.9336Z" fill="#AAA7A5"/>
<path d="M292.899 97.0024C278.659 99.0859 267.614 108.228 258.568 118.5C246.777 134.947 242.196 155.997 236.876 174.971C236.332 176.911 236.332 176.911 235.776 178.89C234.95 182.936 234.865 186.66 235 190.771C234.049 190.258 233.098 189.745 232.117 189.216C227.729 186.858 223.329 184.52 218.929 182.183C216.685 180.971 216.685 180.971 214.396 179.735C202.046 173.202 189.895 167.079 175.399 168.137C175.399 170.272 175.399 172.406 175.399 174.604C176.479 174.748 177.559 174.892 178.672 175.04C197.663 178.502 213.43 188.005 229.892 197.238C231.195 197.964 232.499 198.69 233.842 199.437C257.488 212.432 257.488 212.432 275.87 231.189C277.872 243.235 274.261 252.712 269.058 263.523C268.496 265.124 267.502 266.009 266.923 267.658C251.234 269.181 240.118 266.582 225.914 260.953C220.313 258.906 215.389 257.745 209.457 257.056C209.457 259.19 209.457 261.324 209.457 263.523C211.424 264.09 213.391 264.657 215.417 265.241C258.785 279.138 281.646 300.345 301.873 338.7C302.845 340.567 303.817 342.435 304.819 344.358C306.505 343.825 308.191 343.291 309.928 342.742C306.409 318.115 285.868 295.727 267.356 279.69C266.232 279.157 265.389 279.154 264.231 278.604C267.281 274.685 267.281 274.685 272.745 272.138C279.242 272.914 285.003 274.489 291.196 276.457C312.943 282.84 335.07 285.034 355.906 274.84C372.507 264.729 377.826 248.155 381.929 230.842C382.911 225.928 383.472 221.41 383.685 216.437C385.107 208.824 387.589 206.74 393.896 202.24C396.797 200.387 396.797 200.387 400.182 198.855C399.62 196.721 399.058 194.587 398.479 192.388C393.514 194.124 390.342 195.263 386.558 198.855C385.996 192.453 385.435 186.051 384.856 179.454C381.484 178.654 381.484 178.654 378.044 177.838C377.968 179.205 377.891 180.573 377.812 181.982C377.514 187.154 377.197 192.324 376.869 197.494C376.732 199.713 376.602 201.933 376.479 204.153C375.247 226.22 373.089 248.305 356.332 264.938C341.685 274.03 327.023 274.235 309.928 273.223C304.408 272.061 304.408 272.061 301.979 267.11C298.402 258.399 299.025 249.292 299.178 240.081C299.198 238.2 299.217 236.319 299.237 234.382C299.466 220.674 300.324 207.483 303.116 194.005C303.459 192.321 303.459 192.321 303.809 190.604C309.493 163.378 319.652 142.942 344.332 126.4C348.124 124.029 351.948 121.75 355.906 119.636C355.344 118.036 354.782 116.435 354.203 114.786C334.872 118.713 321.816 132.03 311.312 147.12C294.645 174.174 290.833 206.292 290.664 237.151C290.655 238.58 290.645 240.008 290.635 241.481C290.75 251.338 292.322 260.373 294.602 269.99C288.982 268.389 283.363 266.789 277.573 265.14C278.381 263.706 279.189 262.272 280.021 260.795C284.995 250.783 287.099 238.407 283.081 227.722C274.258 212.769 257.084 203.766 241.812 195.621C244.582 169.449 252.362 132.279 273.209 113.473C279.926 108.509 286.457 105.719 294.602 103.469C294.04 101.335 293.478 99.2011 292.899 97.0024Z" fill="#2F2922"/>
<path d="M137.935 405.793C134.563 406.594 134.563 406.594 131.123 407.41C130.389 419.317 129.662 431.223 128.941 443.131C128.695 447.176 128.447 451.222 128.197 455.267C127.838 461.102 127.484 466.938 127.132 472.773C127.02 474.564 126.909 476.355 126.794 478.2C126.592 481.58 126.408 484.961 126.246 488.343C126.093 491.492 125.893 494.639 125.647 497.782C125.569 499.222 125.492 500.662 125.413 502.146C125.28 504.037 125.28 504.037 125.144 505.967C126.015 509.263 126.015 509.263 134.529 514.113C136.215 482.102 137.901 450.091 139.638 417.11C144.133 419.778 148.629 422.445 153.261 425.194C156.865 426.721 160.519 428.147 164.223 429.438C166.144 430.109 168.065 430.78 170.044 431.471C172.694 432.365 172.694 432.365 175.399 433.277C176.656 433.707 177.914 434.136 179.21 434.578C183.028 435.831 186.868 436.986 190.725 438.127C192.744 438.742 194.764 439.357 196.845 439.99C210.523 444.053 224.219 447.295 238.3 449.849C240.474 450.244 240.474 450.244 242.691 450.647C258.049 453.314 273.282 454.546 288.888 454.623C291.162 454.637 291.162 454.637 293.483 454.651C296.678 454.666 299.874 454.677 303.069 454.683C307.829 454.698 312.588 454.749 317.348 454.8C348.557 454.973 378.686 451.218 408.696 442.978C409.898 442.648 411.1 442.317 412.339 441.977C416.027 440.95 419.707 439.9 423.383 438.835C424.493 438.515 425.602 438.195 426.745 437.866C433.744 435.77 439.475 433.217 446.16 430.044C446.722 459.921 447.284 489.797 447.863 520.579C450.11 520.046 452.358 519.512 454.674 518.963C455.236 504.024 455.798 489.086 456.377 473.695C458.063 473.695 459.749 473.695 461.486 473.695C468.212 461.987 468.492 449.732 464.891 436.915C464.33 435.715 463.768 434.514 463.189 433.277C460.941 433.277 458.693 433.277 456.377 433.277C456.377 429.009 456.377 424.741 456.377 420.344C448.897 420.344 445.432 421.84 438.709 424.79C426.718 429.875 414.587 433.334 401.884 436.511C399.832 437.078 397.779 437.644 395.665 438.229C368.847 445.495 342.716 446.744 314.974 446.633C309.823 446.615 304.672 446.632 299.521 446.653C281.097 446.666 263.412 445.941 245.218 442.978C243.736 442.759 242.254 442.54 240.728 442.314C206.873 437.153 169.785 427.722 141.341 409.027C140.217 409.027 139.093 409.027 137.935 409.027C137.935 407.96 137.935 406.893 137.935 405.793Z" fill="#D2DAD6"/>
<path d="M76.5905 5.11535C68.3495 11.2887 63.9987 17.9791 62.4152 27.9955C61.421 43.4608 68.9018 54.1481 79.2912 65.4766C83.7291 70.0915 87.4295 73.7793 93.6594 75.9852C101.88 75.6531 106.729 73.5847 112.391 67.9017C115.024 56.9664 114.54 45.7141 114.626 34.5571C114.651 33.4833 114.676 32.4095 114.702 31.3032C114.774 28.1571 114.797 25.0101 114.819 21.8634C114.844 19.9948 114.869 18.1262 114.895 16.201C113.921 10.261 112.235 8.47358 107.283 4.85011C97.1585 0.892355 86.3524 -0.2163 76.5905 5.11535Z" fill="#564634"/>
<path d="M88.4614 306.853C87.2182 307.113 88.0768 318.506 91.9229 330.865C96.5383 363.351 94.3754 390.804 83.482 418.392C81.8635 423.207 81.1617 426.663 81.5384 431.661C83.2242 431.661 85.111 431.661 86.8479 431.661C107.692 385.244 108.077 341.811 95.3624 308.791C93.6595 307.174 93.372 305.826 88.4614 306.853Z" fill="#B1AFAE"/>
<path d="M63.8803 298.303C63.3454 297.795 62.5706 297.612 61.8675 297.835C61.3147 298.01 60.7606 298.185 60.2035 298.361C58.7478 298.822 57.5621 299.917 57.0588 301.358C56.6092 302.646 56.4086 303.486 55.7697 306.164C54.5026 310.47 50.1319 313.386 48.0396 314.323C47.3657 314.625 46.4931 314.72 45.7735 314.886C45.5154 314.945 45.2669 315.04 45.035 315.167L43.9729 315.752C43.6333 315.939 43.319 316.169 43.0377 316.436L42.0156 317.405C41.2534 318.127 40.5581 318.92 40.0547 319.842C39.2366 321.34 38.0784 323.903 37.9443 326.601C37.8732 328.031 37.9788 329.45 38.3722 330.827C38.7173 332.035 38.6659 333.367 38.984 334.582C39.7064 337.341 40.9732 338.697 43.6048 340.638C44.0383 340.958 44.557 341.125 45.0956 341.125C46.5192 341.125 47.681 342.279 47.681 343.703C47.681 347.784 47.681 351.876 47.681 356.029C47.681 358.323 49.7977 360.023 52.0306 359.493C53.4917 359.146 54.6029 357.913 54.7683 356.42C54.8639 355.557 54.9602 354.688 55.058 353.806C57.0648 336.355 59.2316 318.672 64.1179 301.699C64.2298 301.206 64.3418 300.713 64.4548 300.215C64.613 299.518 64.3986 298.795 63.8803 298.303Z" fill="#B0AEAD"/>
<path d="M241.811 80.8352C224.749 81.343 209.232 82.6478 196.152 93.9709C184.99 105.665 176.849 123.327 176.782 139.239C176.887 140.773 176.993 142.306 177.101 143.887C178.787 143.887 180.473 143.887 182.21 143.887C182.631 142.42 183.053 140.952 183.487 139.441C184.188 137.148 184.899 134.858 185.616 132.57C186.092 131.046 186.568 129.523 187.059 127.953C191.378 114.854 196.077 101.771 208.698 93.8194C218.569 89.8671 229.571 88.7793 240.108 87.302C240.67 85.168 241.232 83.0339 241.811 80.8352Z" fill="#2F2822"/>
<path d="M97.0654 203.705C97.0197 206.635 96.9865 209.565 96.959 212.496C96.9392 214.128 96.9195 215.759 96.8991 217.441C97.0654 221.489 97.0654 221.489 98.7683 223.105C102.492 223.223 106.219 223.241 109.944 223.206C113.003 223.185 113.003 223.185 116.123 223.162C117.702 223.143 119.28 223.125 120.906 223.105C120.906 217.237 120.906 211.368 120.906 205.322C112.862 204.268 105.206 203.512 97.0654 203.705Z" fill="#C1BEBC"/>
<path d="M122.609 12.9335C122.047 12.9335 121.485 12.9335 120.906 12.9335C120.906 25.7378 120.906 38.5421 120.906 51.7344C127.955 41.6964 128.992 32.8869 127.717 21.017C125.27 15.8638 125.27 15.8638 122.609 12.9335Z" fill="#5C4D3D"/>
<path d="M282.681 409.027C283.243 411.161 283.805 413.295 284.384 415.493C293.376 415.493 302.367 415.493 311.631 415.493C311.631 413.893 311.631 412.292 311.631 410.643C302.508 406.173 292.321 405.976 282.681 409.027Z" fill="#312A22"/>
</g>
<defs>
<filter id="filter0_d_27_48" x="6.84448" y="1.49207" width="465.731" height="653.39" filterUnits="userSpaceOnUse" color-interpolation-filters="sRGB">
<feFlood flood-opacity="0" result="BackgroundImageFix"/>
<feColorMatrix in="SourceAlpha" type="matrix" values="0 0 0 0 0 0 0 0 0 0 0 0 0 0 0 0 0 0 127 0" result="hardAlpha"/>
<feOffset dy="4"/>
<feGaussianBlur stdDeviation="2"/>
<feComposite in2="hardAlpha" operator="out"/>
<feColorMatrix type="matrix" values="0 0 0 0 0 0 0 0 0 0 0 0 0 0 0 0 0 0 0.25 0"/>
<feBlend mode="normal" in2="BackgroundImageFix" result="effect1_dropShadow_27_48"/>
<feBlend mode="normal" in="SourceGraphic" in2="effect1_dropShadow_27_48" result="shape"/>
</filter>
</defs>
</svg>
